<svg xmlns="http://www.w3.org/2000/svg" xmlns:xlink="http://www.w3.org/1999/xlink" width="160" zoomAndPan="magnify" viewBox="0 0 120 119.999999" height="160" preserveAspectRatio="xMidYMid meet" version="1.0"><defs><g/><clipPath id="ffdb76b50c"><path d="M 0.320312 40 L 1 40 L 1 41 L 0.320312 41 Z M 0.320312 40 " clip-rule="nonzero"/></clipPath><clipPath id="f77a82efda"><path d="M 74 33 L 81.921875 33 L 81.921875 41 L 74 41 Z M 74 33 " clip-rule="nonzero"/></clipPath><clipPath id="2713c14fa6"><rect x="0" width="82" y="0" height="61"/></clipPath><clipPath id="05cc1b5b83"><rect x="0" width="102" y="0" height="61"/></clipPath><clipPath id="108e570378"><path d="M 71 20 L 105 20 L 105 39 L 71 39 Z M 71 20 " clip-rule="nonzero"/></clipPath><clipPath id="20e2be77ba"><path d="M 69.566406 24.414062 L 100.894531 11.859375 L 108.984375 32.050781 L 77.65625 44.605469 Z M 69.566406 24.414062 " clip-rule="nonzero"/></clipPath><clipPath id="abd870b644"><path d="M 69.566406 24.414062 L 100.894531 11.859375 L 108.984375 32.050781 L 77.65625 44.605469 Z M 69.566406 24.414062 " clip-rule="nonzero"/></clipPath><clipPath id="94e31837fb"><path d="M 72 20 L 105 20 L 105 38 L 72 38 Z M 72 20 " clip-rule="nonzero"/></clipPath><clipPath id="18566b5b61"><path d="M 69.566406 24.414062 L 100.894531 11.859375 L 108.984375 32.050781 L 77.65625 44.605469 Z M 69.566406 24.414062 " clip-rule="nonzero"/></clipPath><clipPath id="5cba677a93"><path d="M 69.566406 24.414062 L 100.894531 11.859375 L 108.984375 32.050781 L 77.65625 44.605469 Z M 69.566406 24.414062 " clip-rule="nonzero"/></clipPath><clipPath id="a9824e6e96"><path d="M 73 29 L 79 29 L 79 33 L 73 33 Z M 73 29 " clip-rule="nonzero"/></clipPath><clipPath id="50284f115c"><path d="M 69.566406 24.414062 L 100.894531 11.859375 L 108.984375 32.050781 L 77.65625 44.605469 Z M 69.566406 24.414062 " clip-rule="nonzero"/></clipPath><clipPath id="e79188e5a4"><path d="M 69.566406 24.414062 L 100.894531 11.859375 L 108.984375 32.050781 L 77.65625 44.605469 Z M 69.566406 24.414062 " clip-rule="nonzero"/></clipPath><clipPath id="13a538c3e2"><path d="M 85 22 L 94 22 L 94 26 L 85 26 Z M 85 22 " clip-rule="nonzero"/></clipPath><clipPath id="d3680a2730"><path d="M 69.566406 24.414062 L 100.894531 11.859375 L 108.984375 32.050781 L 77.65625 44.605469 Z M 69.566406 24.414062 " clip-rule="nonzero"/></clipPath><clipPath id="dca634aa6e"><path d="M 69.566406 24.414062 L 100.894531 11.859375 L 108.984375 32.050781 L 77.65625 44.605469 Z M 69.566406 24.414062 " clip-rule="nonzero"/></clipPath><clipPath id="86535a696e"><path d="M 82 25 L 102 25 L 102 37 L 82 37 Z M 82 25 " clip-rule="nonzero"/></clipPath><clipPath id="1ef794bef3"><path d="M 69.566406 24.414062 L 100.894531 11.859375 L 108.984375 32.050781 L 77.65625 44.605469 Z M 69.566406 24.414062 " clip-rule="nonzero"/></clipPath><clipPath id="03e202239b"><path d="M 69.566406 24.414062 L 100.894531 11.859375 L 108.984375 32.050781 L 77.65625 44.605469 Z M 69.566406 24.414062 " clip-rule="nonzero"/></clipPath><clipPath id="ade789c611"><path d="M 82 24 L 90 24 L 90 26 L 82 26 Z M 82 24 " clip-rule="nonzero"/></clipPath><clipPath id="02bec6d1fa"><path d="M 69.566406 24.414062 L 100.894531 11.859375 L 108.984375 32.050781 L 77.65625 44.605469 Z M 69.566406 24.414062 " clip-rule="nonzero"/></clipPath><clipPath id="2218f5f9ca"><path d="M 69.566406 24.414062 L 100.894531 11.859375 L 108.984375 32.050781 L 77.65625 44.605469 Z M 69.566406 24.414062 " clip-rule="nonzero"/></clipPath><clipPath id="da4ee0f07a"><path d="M 95 30 L 96 30 L 96 34 L 95 34 Z M 95 30 " clip-rule="nonzero"/></clipPath><clipPath id="62d00b70a1"><path d="M 69.566406 24.414062 L 100.894531 11.859375 L 108.984375 32.050781 L 77.65625 44.605469 Z M 69.566406 24.414062 " clip-rule="nonzero"/></clipPath><clipPath id="8c25d35f69"><path d="M 69.566406 24.414062 L 100.894531 11.859375 L 108.984375 32.050781 L 77.65625 44.605469 Z M 69.566406 24.414062 " clip-rule="nonzero"/></clipPath><clipPath id="57a8c3cc54"><path d="M 87 27 L 100 27 L 100 31 L 87 31 Z M 87 27 " clip-rule="nonzero"/></clipPath><clipPath id="ffe737f580"><path d="M 69.566406 24.414062 L 100.894531 11.859375 L 108.984375 32.050781 L 77.65625 44.605469 Z M 69.566406 24.414062 " clip-rule="nonzero"/></clipPath><clipPath id="e50c36846c"><path d="M 69.566406 24.414062 L 100.894531 11.859375 L 108.984375 32.050781 L 77.65625 44.605469 Z M 69.566406 24.414062 " clip-rule="nonzero"/></clipPath><clipPath id="0ced8e8bd2"><path d="M 82 30 L 91 30 L 91 32 L 82 32 Z M 82 30 " clip-rule="nonzero"/></clipPath><clipPath id="83cd66eb3f"><path d="M 69.566406 24.414062 L 100.894531 11.859375 L 108.984375 32.050781 L 77.65625 44.605469 Z M 69.566406 24.414062 " clip-rule="nonzero"/></clipPath><clipPath id="0bf9527d4d"><path d="M 69.566406 24.414062 L 100.894531 11.859375 L 108.984375 32.050781 L 77.65625 44.605469 Z M 69.566406 24.414062 " clip-rule="nonzero"/></clipPath><clipPath id="d0a93f0e62"><path d="M 76 30 L 79 30 L 79 33 L 76 33 Z M 76 30 " clip-rule="nonzero"/></clipPath><clipPath id="0b14f4fa6e"><path d="M 69.566406 24.414062 L 100.894531 11.859375 L 108.984375 32.050781 L 77.65625 44.605469 Z M 69.566406 24.414062 " clip-rule="nonzero"/></clipPath><clipPath id="f86dfa7d2d"><path d="M 69.566406 24.414062 L 100.894531 11.859375 L 108.984375 32.050781 L 77.65625 44.605469 Z M 69.566406 24.414062 " clip-rule="nonzero"/></clipPath></defs><rect x="-12" width="144" fill="#ffffff" y="-12" height="143.999998" fill-opacity="1"/><rect x="-12" width="144" fill="#075056" y="-12" height="143.999998" fill-opacity="1"/><g transform="matrix(1, 0, 0, 1, 22, 37)"><g clip-path="url(#2713c14fa6)"><g clip-path="url(#ffdb76b50c)"><g fill="#ffffff" fill-opacity="1"><g transform="translate(0.504125, 40.299737)"><g/></g></g></g><g fill="#ffffff" fill-opacity="1"><g transform="translate(5.186283, 40.299737)"><g/></g></g><g fill="#ffffff" fill-opacity="1"><g transform="translate(9.868865, 40.299737)"><g><path d="M 11.671875 0.609375 C 10.179688 0.609375 8.800781 0.398438 7.53125 -0.015625 C 6.257812 -0.429688 5.148438 -1.054688 4.203125 -1.890625 C 3.265625 -2.722656 2.523438 -3.765625 1.984375 -5.015625 C 1.441406 -6.273438 1.171875 -7.75 1.171875 -9.4375 C 1.171875 -11.101562 1.441406 -12.53125 1.984375 -13.71875 C 2.523438 -14.914062 3.234375 -15.898438 4.109375 -16.671875 C 4.992188 -17.441406 6.003906 -18.007812 7.140625 -18.375 C 8.273438 -18.738281 9.429688 -18.921875 10.609375 -18.921875 C 11.941406 -18.921875 13.15625 -18.71875 14.25 -18.3125 C 15.351562 -17.914062 16.300781 -17.363281 17.09375 -16.65625 C 17.882812 -15.945312 18.5 -15.101562 18.9375 -14.125 C 19.375 -13.144531 19.59375 -12.078125 19.59375 -10.921875 C 19.59375 -10.054688 19.351562 -9.394531 18.875 -8.9375 C 18.40625 -8.488281 17.738281 -8.203125 16.875 -8.078125 L 7.546875 -6.6875 C 7.828125 -5.851562 8.394531 -5.226562 9.25 -4.8125 C 10.101562 -4.394531 11.085938 -4.1875 12.203125 -4.1875 C 13.234375 -4.1875 14.207031 -4.316406 15.125 -4.578125 C 16.039062 -4.847656 16.789062 -5.160156 17.375 -5.515625 C 17.769531 -5.265625 18.109375 -4.910156 18.390625 -4.453125 C 18.671875 -4.003906 18.8125 -3.523438 18.8125 -3.015625 C 18.8125 -1.890625 18.28125 -1.046875 17.21875 -0.484375 C 16.414062 -0.0546875 15.507812 0.226562 14.5 0.375 C 13.488281 0.53125 12.546875 0.609375 11.671875 0.609375 Z M 10.609375 -14.234375 C 10.003906 -14.234375 9.484375 -14.132812 9.046875 -13.9375 C 8.609375 -13.738281 8.25 -13.476562 7.96875 -13.15625 C 7.6875 -12.84375 7.476562 -12.488281 7.34375 -12.09375 C 7.207031 -11.707031 7.125 -11.316406 7.09375 -10.921875 L 13.5625 -11.96875 C 13.476562 -12.476562 13.195312 -12.984375 12.71875 -13.484375 C 12.25 -13.984375 11.546875 -14.234375 10.609375 -14.234375 Z M 10.609375 -14.234375 "/></g></g></g><g fill="#ffffff" fill-opacity="1"><g transform="translate(27.729213, 40.299737)"><g><path d="M 9.8125 -4.078125 C 10.25 -4.078125 10.722656 -4.117188 11.234375 -4.203125 C 11.753906 -4.296875 12.140625 -4.414062 12.390625 -4.5625 L 12.390625 -7.59375 L 9.671875 -7.359375 C 8.960938 -7.304688 8.378906 -7.15625 7.921875 -6.90625 C 7.472656 -6.65625 7.25 -6.28125 7.25 -5.78125 C 7.25 -5.269531 7.441406 -4.859375 7.828125 -4.546875 C 8.222656 -4.234375 8.882812 -4.078125 9.8125 -4.078125 Z M 9.515625 -18.921875 C 10.878906 -18.921875 12.117188 -18.78125 13.234375 -18.5 C 14.359375 -18.226562 15.316406 -17.804688 16.109375 -17.234375 C 16.898438 -16.671875 17.507812 -15.953125 17.9375 -15.078125 C 18.363281 -14.210938 18.578125 -13.191406 18.578125 -12.015625 L 18.578125 -3.546875 C 18.578125 -2.890625 18.394531 -2.351562 18.03125 -1.9375 C 17.664062 -1.53125 17.234375 -1.175781 16.734375 -0.875 C 15.097656 0.113281 12.789062 0.609375 9.8125 0.609375 C 8.476562 0.609375 7.273438 0.476562 6.203125 0.21875 C 5.140625 -0.03125 4.222656 -0.40625 3.453125 -0.90625 C 2.679688 -1.40625 2.085938 -2.046875 1.671875 -2.828125 C 1.265625 -3.609375 1.0625 -4.515625 1.0625 -5.546875 C 1.0625 -7.285156 1.578125 -8.617188 2.609375 -9.546875 C 3.640625 -10.484375 5.238281 -11.066406 7.40625 -11.296875 L 12.34375 -11.828125 L 12.34375 -12.078125 C 12.34375 -12.816406 12.019531 -13.34375 11.375 -13.65625 C 10.738281 -13.96875 9.816406 -14.125 8.609375 -14.125 C 7.648438 -14.125 6.71875 -14.019531 5.8125 -13.8125 C 4.90625 -13.613281 4.085938 -13.363281 3.359375 -13.0625 C 3.035156 -13.289062 2.757812 -13.632812 2.53125 -14.09375 C 2.300781 -14.5625 2.1875 -15.050781 2.1875 -15.5625 C 2.1875 -16.21875 2.34375 -16.738281 2.65625 -17.125 C 2.976562 -17.519531 3.460938 -17.851562 4.109375 -18.125 C 4.847656 -18.40625 5.710938 -18.609375 6.703125 -18.734375 C 7.691406 -18.859375 8.628906 -18.921875 9.515625 -18.921875 Z M 9.515625 -18.921875 "/></g></g></g><g fill="#ffffff" fill-opacity="1"><g transform="translate(45.400765, 40.299737)"><g><path d="M 8.390625 -6.3125 C 8.390625 -5.65625 8.59375 -5.1875 9 -4.90625 C 9.414062 -4.632812 10.003906 -4.5 10.765625 -4.5 C 11.140625 -4.5 11.523438 -4.53125 11.921875 -4.59375 C 12.328125 -4.65625 12.679688 -4.734375 12.984375 -4.828125 C 13.210938 -4.554688 13.410156 -4.25 13.578125 -3.90625 C 13.742188 -3.570312 13.828125 -3.164062 13.828125 -2.6875 C 13.828125 -1.726562 13.46875 -0.945312 12.75 -0.34375 C 12.03125 0.257812 10.765625 0.5625 8.953125 0.5625 C 6.734375 0.5625 5.023438 0.0625 3.828125 -0.9375 C 2.640625 -1.945312 2.046875 -3.585938 2.046875 -5.859375 L 2.046875 -22.015625 C 2.316406 -22.085938 2.707031 -22.164062 3.21875 -22.25 C 3.738281 -22.34375 4.289062 -22.390625 4.875 -22.390625 C 5.976562 -22.390625 6.835938 -22.191406 7.453125 -21.796875 C 8.078125 -21.410156 8.390625 -20.59375 8.390625 -19.34375 L 8.390625 -16.921875 L 13.328125 -16.921875 C 13.484375 -16.640625 13.628906 -16.289062 13.765625 -15.875 C 13.898438 -15.457031 13.96875 -15 13.96875 -14.5 C 13.96875 -13.625 13.769531 -12.988281 13.375 -12.59375 C 12.988281 -12.207031 12.472656 -12.015625 11.828125 -12.015625 L 8.390625 -12.015625 Z M 8.390625 -6.3125 "/></g></g></g><g fill="#ffffff" fill-opacity="1"><g transform="translate(57.634898, 40.299737)"><g><path d="M 17.453125 -5.46875 C 17.453125 -3.5625 16.734375 -2.066406 15.296875 -0.984375 C 13.859375 0.0976562 11.742188 0.640625 8.953125 0.640625 C 7.890625 0.640625 6.90625 0.5625 6 0.40625 C 5.09375 0.257812 4.316406 0.03125 3.671875 -0.28125 C 3.035156 -0.59375 2.535156 -0.988281 2.171875 -1.46875 C 1.804688 -1.945312 1.625 -2.515625 1.625 -3.171875 C 1.625 -3.773438 1.75 -4.285156 2 -4.703125 C 2.25 -5.117188 2.550781 -5.460938 2.90625 -5.734375 C 3.632812 -5.335938 4.46875 -4.976562 5.40625 -4.65625 C 6.351562 -4.34375 7.445312 -4.1875 8.6875 -4.1875 C 9.46875 -4.1875 10.066406 -4.300781 10.484375 -4.53125 C 10.898438 -4.757812 11.109375 -5.0625 11.109375 -5.4375 C 11.109375 -5.789062 10.957031 -6.066406 10.65625 -6.265625 C 10.351562 -6.472656 9.847656 -6.640625 9.140625 -6.765625 L 8 -6.984375 C 5.8125 -7.410156 4.179688 -8.082031 3.109375 -9 C 2.046875 -9.925781 1.515625 -11.242188 1.515625 -12.953125 C 1.515625 -13.878906 1.710938 -14.71875 2.109375 -15.46875 C 2.515625 -16.226562 3.082031 -16.859375 3.8125 -17.359375 C 4.539062 -17.867188 5.414062 -18.257812 6.4375 -18.53125 C 7.457031 -18.8125 8.582031 -18.953125 9.8125 -18.953125 C 10.75 -18.953125 11.625 -18.882812 12.4375 -18.75 C 13.257812 -18.613281 13.972656 -18.40625 14.578125 -18.125 C 15.179688 -17.851562 15.660156 -17.492188 16.015625 -17.046875 C 16.367188 -16.609375 16.546875 -16.085938 16.546875 -15.484375 C 16.546875 -14.898438 16.4375 -14.398438 16.21875 -13.984375 C 16.007812 -13.578125 15.738281 -13.234375 15.40625 -12.953125 C 15.207031 -13.078125 14.90625 -13.207031 14.5 -13.34375 C 14.09375 -13.488281 13.648438 -13.613281 13.171875 -13.71875 C 12.703125 -13.832031 12.21875 -13.925781 11.71875 -14 C 11.226562 -14.082031 10.785156 -14.125 10.390625 -14.125 C 9.554688 -14.125 8.910156 -14.03125 8.453125 -13.84375 C 8.003906 -13.65625 7.78125 -13.359375 7.78125 -12.953125 C 7.78125 -12.671875 7.90625 -12.441406 8.15625 -12.265625 C 8.40625 -12.097656 8.882812 -11.9375 9.59375 -11.78125 L 10.765625 -11.515625 C 13.179688 -10.960938 14.898438 -10.203125 15.921875 -9.234375 C 16.941406 -8.265625 17.453125 -7.007812 17.453125 -5.46875 Z M 17.453125 -5.46875 "/></g></g></g><g clip-path="url(#f77a82efda)"><g fill="#ffffff" fill-opacity="1"><g transform="translate(73.342933, 40.299737)"><g><path d="M 0.828125 -3.0625 C 0.828125 -4.113281 1.15625 -4.992188 1.8125 -5.703125 C 2.46875 -6.410156 3.363281 -6.765625 4.5 -6.765625 C 5.625 -6.765625 6.515625 -6.410156 7.171875 -5.703125 C 7.828125 -4.992188 8.15625 -4.113281 8.15625 -3.0625 C 8.15625 -2 7.828125 -1.113281 7.171875 -0.40625 C 6.515625 0.289062 5.625 0.640625 4.5 0.640625 C 3.363281 0.640625 2.46875 0.289062 1.8125 -0.40625 C 1.15625 -1.113281 0.828125 -2 0.828125 -3.0625 Z M 0.828125 -3.0625 "/></g></g></g></g></g></g><g transform="matrix(1, 0, 0, 1, 2, 14)"><g clip-path="url(#05cc1b5b83)"><g fill="#1b2123" fill-opacity="1"><g transform="translate(0.713697, 40.694503)"><g><path d="M 10.761719 -19.4375 C 11.84375 -19.4375 12.90625 -19.285156 13.945312 -18.980469 C 15.007812 -18.671875 15.925781 -18.207031 16.710938 -17.585938 L 16.386719 -17.179688 L 16.101562 -17.613281 C 16.890625 -18.140625 17.78125 -18.574219 18.765625 -18.917969 C 19.765625 -19.265625 20.960938 -19.4375 22.355469 -19.4375 C 23.355469 -19.4375 24.339844 -19.304688 25.304688 -19.039062 C 26.285156 -18.773438 27.164062 -18.347656 27.933594 -17.765625 C 28.71875 -17.171875 29.34375 -16.390625 29.808594 -15.421875 C 30.269531 -14.457031 30.5 -13.292969 30.5 -11.933594 L 30.5 0.347656 L 30.128906 0.460938 C 29.851562 0.542969 29.429688 0.625 28.863281 0.703125 C 28.296875 0.78125 27.714844 0.820312 27.113281 0.820312 C 26.527344 0.820312 26 0.78125 25.53125 0.699219 C 25.007812 0.609375 24.5625 0.429688 24.195312 0.152344 C 23.816406 -0.132812 23.527344 -0.511719 23.328125 -0.988281 C 23.136719 -1.441406 23.042969 -2.019531 23.042969 -2.71875 L 23.042969 -11.742188 C 23.042969 -12.332031 22.894531 -12.742188 22.597656 -12.980469 C 22.265625 -13.242188 21.792969 -13.375 21.183594 -13.375 C 20.898438 -13.375 20.585938 -13.308594 20.246094 -13.167969 C 19.898438 -13.027344 19.644531 -12.886719 19.484375 -12.75 L 19.144531 -13.140625 L 19.648438 -13.265625 C 19.683594 -13.125 19.703125 -12.988281 19.703125 -12.855469 L 19.703125 0.359375 L 19.320312 0.464844 C 19.019531 0.542969 18.589844 0.625 18.027344 0.703125 C 17.460938 0.78125 16.890625 0.820312 16.3125 0.820312 C 15.730469 0.820312 15.203125 0.78125 14.734375 0.699219 C 14.210938 0.609375 13.765625 0.429688 13.394531 0.152344 C 13.019531 -0.132812 12.730469 -0.511719 12.53125 -0.988281 C 12.339844 -1.441406 12.242188 -2.019531 12.242188 -2.71875 L 12.242188 -11.742188 C 12.242188 -12.324219 12.082031 -12.730469 11.757812 -12.964844 C 11.382812 -13.238281 10.925781 -13.375 10.382812 -13.375 C 10 -13.375 9.679688 -13.320312 9.414062 -13.210938 C 9.105469 -13.078125 8.84375 -12.953125 8.636719 -12.835938 L 8.382812 -13.292969 L 8.902344 -13.292969 L 8.902344 0.347656 L 8.53125 0.460938 C 8.253906 0.542969 7.832031 0.625 7.265625 0.703125 C 6.699219 0.78125 6.117188 0.820312 5.511719 0.820312 C 4.929688 0.820312 4.402344 0.78125 3.933594 0.699219 C 3.410156 0.609375 2.964844 0.429688 2.597656 0.152344 C 2.21875 -0.132812 1.929688 -0.511719 1.730469 -0.988281 C 1.539062 -1.441406 1.445312 -2.019531 1.445312 -2.71875 L 1.445312 -14.121094 C 1.445312 -14.914062 1.621094 -15.554688 1.976562 -16.050781 C 2.300781 -16.5 2.738281 -16.917969 3.289062 -17.304688 C 4.191406 -17.941406 5.304688 -18.457031 6.628906 -18.847656 C 7.949219 -19.242188 9.328125 -19.4375 10.761719 -19.4375 Z M 10.761719 -18.398438 C 9.425781 -18.398438 8.148438 -18.21875 6.925781 -17.855469 C 5.710938 -17.492188 4.695312 -17.027344 3.886719 -16.453125 C 3.429688 -16.132812 3.074219 -15.796875 2.820312 -15.441406 C 2.59375 -15.128906 2.484375 -14.691406 2.484375 -14.121094 L 2.484375 -2.71875 C 2.484375 -2.160156 2.550781 -1.714844 2.6875 -1.390625 C 2.816406 -1.085938 2.992188 -0.851562 3.21875 -0.679688 C 3.453125 -0.503906 3.75 -0.382812 4.109375 -0.324219 C 4.519531 -0.253906 4.988281 -0.21875 5.511719 -0.21875 C 6.066406 -0.21875 6.605469 -0.253906 7.121094 -0.324219 C 7.636719 -0.398438 8.007812 -0.46875 8.234375 -0.535156 L 8.382812 -0.0390625 L 7.863281 -0.0390625 L 7.863281 -13.597656 L 8.128906 -13.746094 C 8.375 -13.878906 8.667969 -14.019531 9.011719 -14.167969 C 9.402344 -14.332031 9.859375 -14.414062 10.382812 -14.414062 C 11.152344 -14.414062 11.8125 -14.210938 12.371094 -13.804688 C 12.976562 -13.363281 13.28125 -12.675781 13.28125 -11.742188 L 13.28125 -2.71875 C 13.28125 -2.160156 13.351562 -1.714844 13.488281 -1.390625 C 13.613281 -1.085938 13.792969 -0.851562 14.019531 -0.679688 C 14.253906 -0.503906 14.550781 -0.382812 14.910156 -0.324219 C 15.320312 -0.253906 15.789062 -0.21875 16.3125 -0.21875 C 16.84375 -0.21875 17.367188 -0.253906 17.882812 -0.324219 C 18.402344 -0.398438 18.789062 -0.46875 19.046875 -0.539062 L 19.183594 -0.0390625 L 18.664062 -0.0390625 L 18.664062 -12.855469 C 18.664062 -12.902344 18.65625 -12.957031 18.640625 -13.015625 L 18.5625 -13.324219 L 18.800781 -13.53125 C 19.046875 -13.746094 19.398438 -13.945312 19.855469 -14.132812 C 20.320312 -14.320312 20.761719 -14.414062 21.183594 -14.414062 C 22.035156 -14.414062 22.71875 -14.207031 23.242188 -13.792969 C 23.800781 -13.347656 24.082031 -12.664062 24.082031 -11.742188 L 24.082031 -2.71875 C 24.082031 -2.160156 24.148438 -1.714844 24.285156 -1.390625 C 24.414062 -1.085938 24.589844 -0.851562 24.816406 -0.679688 C 25.054688 -0.503906 25.351562 -0.382812 25.707031 -0.324219 C 26.121094 -0.253906 26.585938 -0.21875 27.113281 -0.21875 C 27.667969 -0.21875 28.203125 -0.253906 28.71875 -0.324219 C 29.234375 -0.398438 29.605469 -0.46875 29.832031 -0.535156 L 29.980469 -0.0390625 L 29.460938 -0.0390625 L 29.460938 -11.933594 C 29.460938 -13.136719 29.265625 -14.152344 28.871094 -14.972656 C 28.480469 -15.792969 27.957031 -16.445312 27.308594 -16.9375 C 26.644531 -17.4375 25.882812 -17.804688 25.03125 -18.039062 C 24.15625 -18.277344 23.265625 -18.398438 22.355469 -18.398438 C 21.078125 -18.398438 19.996094 -18.246094 19.105469 -17.9375 C 18.203125 -17.625 17.394531 -17.226562 16.675781 -16.75 L 16.359375 -16.539062 L 16.066406 -16.773438 C 15.386719 -17.3125 14.585938 -17.714844 13.65625 -17.984375 C 12.710938 -18.261719 11.746094 -18.398438 10.761719 -18.398438 Z M 10.761719 -18.398438 "/></g></g></g><g fill="#1b2123" fill-opacity="1"><g transform="translate(29.788714, 40.694503)"><g><path d="M 11.667969 1.125 C 10.128906 1.125 8.695312 0.90625 7.371094 0.476562 C 6.03125 0.0390625 4.863281 -0.621094 3.867188 -1.5 C 2.863281 -2.378906 2.078125 -3.488281 1.503906 -4.816406 C 0.9375 -6.140625 0.652344 -7.683594 0.652344 -9.441406 C 0.652344 -11.175781 0.9375 -12.675781 1.507812 -13.941406 C 2.082031 -15.203125 2.835938 -16.246094 3.773438 -17.0625 C 4.710938 -17.875 5.777344 -18.476562 6.976562 -18.863281 C 8.160156 -19.246094 9.371094 -19.4375 10.609375 -19.4375 C 12.007812 -19.4375 13.28125 -19.226562 14.433594 -18.800781 C 15.589844 -18.375 16.589844 -17.789062 17.429688 -17.039062 C 18.28125 -16.285156 18.9375 -15.382812 19.410156 -14.335938 C 19.882812 -13.285156 20.117188 -12.144531 20.117188 -10.914062 C 20.117188 -9.90625 19.824219 -9.128906 19.238281 -8.570312 C 18.679688 -8.042969 17.917969 -7.707031 16.953125 -7.566406 L 7.628906 -6.171875 L 7.550781 -6.683594 L 8.042969 -6.847656 C 8.273438 -6.15625 8.753906 -5.632812 9.476562 -5.28125 C 10.261719 -4.902344 11.167969 -4.710938 12.195312 -4.710938 C 13.179688 -4.710938 14.105469 -4.835938 14.980469 -5.085938 C 15.851562 -5.339844 16.558594 -5.628906 17.097656 -5.957031 L 17.375 -6.121094 L 17.644531 -5.953125 C 18.117188 -5.65625 18.511719 -5.25 18.832031 -4.726562 C 19.160156 -4.191406 19.324219 -3.621094 19.324219 -3.019531 C 19.324219 -1.679688 18.703125 -0.683594 17.460938 -0.03125 C 16.601562 0.425781 15.640625 0.730469 14.578125 0.890625 C 13.542969 1.046875 12.574219 1.125 11.667969 1.125 Z M 11.667969 0.0859375 C 12.523438 0.0859375 13.441406 0.0117188 14.421875 -0.136719 C 15.371094 -0.277344 16.222656 -0.550781 16.976562 -0.949219 C 17.847656 -1.40625 18.285156 -2.097656 18.285156 -3.019531 C 18.285156 -3.425781 18.171875 -3.816406 17.945312 -4.183594 C 17.710938 -4.566406 17.429688 -4.863281 17.09375 -5.074219 L 17.371094 -5.511719 L 17.640625 -5.070312 C 17.019531 -4.691406 16.230469 -4.367188 15.265625 -4.089844 C 14.300781 -3.8125 13.277344 -3.671875 12.195312 -3.671875 C 11.007812 -3.671875 9.953125 -3.898438 9.023438 -4.347656 C 8.039062 -4.828125 7.382812 -5.550781 7.058594 -6.519531 L 6.863281 -7.105469 L 16.804688 -8.59375 C 17.550781 -8.703125 18.125 -8.949219 18.523438 -9.324219 C 18.894531 -9.675781 19.078125 -10.207031 19.078125 -10.914062 C 19.078125 -11.996094 18.875 -12.996094 18.460938 -13.910156 C 18.050781 -14.824219 17.480469 -15.609375 16.742188 -16.265625 C 15.996094 -16.925781 15.109375 -17.445312 14.074219 -17.828125 C 13.039062 -18.207031 11.882812 -18.398438 10.609375 -18.398438 C 9.480469 -18.398438 8.375 -18.222656 7.296875 -17.875 C 6.230469 -17.53125 5.285156 -17 4.457031 -16.28125 C 3.632812 -15.5625 2.964844 -14.636719 2.457031 -13.511719 C 1.945312 -12.382812 1.691406 -11.027344 1.691406 -9.441406 C 1.691406 -7.824219 1.945312 -6.421875 2.460938 -5.226562 C 2.96875 -4.039062 3.667969 -3.058594 4.554688 -2.277344 C 5.445312 -1.492188 6.492188 -0.90625 7.695312 -0.511719 C 8.914062 -0.113281 10.238281 0.0859375 11.667969 0.0859375 Z M 10.609375 -13.714844 C 10.082031 -13.714844 9.632812 -13.632812 9.257812 -13.460938 C 8.886719 -13.289062 8.585938 -13.074219 8.355469 -12.816406 C 8.125 -12.550781 7.949219 -12.253906 7.832031 -11.929688 C 7.710938 -11.582031 7.640625 -11.234375 7.617188 -10.878906 L 7.097656 -10.914062 L 7.015625 -11.425781 L 13.472656 -12.480469 L 13.554688 -11.96875 L 13.042969 -11.894531 C 12.984375 -12.289062 12.75 -12.699219 12.347656 -13.121094 C 11.972656 -13.519531 11.394531 -13.714844 10.609375 -13.714844 Z M 10.609375 -14.753906 C 11.691406 -14.753906 12.519531 -14.449219 13.101562 -13.839844 C 13.65625 -13.253906 13.976562 -12.660156 14.070312 -12.046875 L 14.144531 -11.539062 L 6.539062 -10.296875 L 6.582031 -10.945312 C 6.609375 -11.394531 6.699219 -11.839844 6.855469 -12.277344 C 7.015625 -12.730469 7.257812 -13.136719 7.578125 -13.503906 C 7.902344 -13.871094 8.320312 -14.171875 8.828125 -14.40625 C 9.335938 -14.636719 9.929688 -14.753906 10.609375 -14.753906 Z M 10.609375 -14.753906 "/></g></g></g><g fill="#1b2123" fill-opacity="1"><g transform="translate(47.649063, 40.694503)"><g><path d="M 8.902344 -6.304688 C 8.902344 -5.835938 9.03125 -5.515625 9.292969 -5.339844 C 9.621094 -5.121094 10.109375 -5.011719 10.761719 -5.011719 C 11.113281 -5.011719 11.476562 -5.042969 11.851562 -5.101562 C 12.226562 -5.160156 12.550781 -5.234375 12.824219 -5.324219 L 13.164062 -5.4375 L 13.390625 -5.160156 C 13.644531 -4.851562 13.859375 -4.511719 14.042969 -4.132812 C 14.242188 -3.722656 14.339844 -3.238281 14.339844 -2.679688 C 14.339844 -1.5625 13.917969 -0.652344 13.078125 0.0585938 C 12.265625 0.742188 10.886719 1.085938 8.949219 1.085938 C 6.609375 1.085938 4.789062 0.542969 3.5 -0.546875 C 2.179688 -1.65625 1.519531 -3.425781 1.519531 -5.851562 L 1.519531 -22.410156 L 1.902344 -22.515625 C 2.195312 -22.59375 2.609375 -22.679688 3.140625 -22.769531 C 3.6875 -22.863281 4.261719 -22.910156 4.871094 -22.910156 C 6.078125 -22.910156 7.035156 -22.6875 7.734375 -22.246094 C 8.511719 -21.753906 8.902344 -20.78125 8.902344 -19.332031 L 8.902344 -16.917969 L 8.382812 -16.917969 L 8.382812 -17.4375 L 13.636719 -17.4375 L 13.785156 -17.164062 C 13.949219 -16.859375 14.109375 -16.488281 14.257812 -16.042969 C 14.414062 -15.574219 14.492188 -15.058594 14.492188 -14.5 C 14.492188 -13.476562 14.246094 -12.71875 13.753906 -12.226562 C 13.261719 -11.734375 12.617188 -11.488281 11.820312 -11.488281 L 8.382812 -11.488281 L 8.382812 -12.007812 L 8.902344 -12.007812 Z M 7.863281 -6.304688 L 7.863281 -12.527344 L 11.820312 -12.527344 C 12.328125 -12.527344 12.730469 -12.671875 13.019531 -12.960938 C 13.308594 -13.25 13.453125 -13.761719 13.453125 -14.5 C 13.453125 -14.945312 13.390625 -15.351562 13.269531 -15.714844 C 13.140625 -16.101562 13.007812 -16.417969 12.875 -16.667969 L 13.328125 -16.917969 L 13.328125 -16.398438 L 7.863281 -16.398438 L 7.863281 -19.332031 C 7.863281 -20.402344 7.636719 -21.078125 7.179688 -21.367188 C 6.648438 -21.703125 5.878906 -21.871094 4.871094 -21.871094 C 4.320312 -21.871094 3.804688 -21.832031 3.316406 -21.746094 C 2.816406 -21.664062 2.4375 -21.585938 2.175781 -21.511719 L 2.039062 -22.015625 L 2.558594 -22.015625 L 2.558594 -5.851562 C 2.558594 -3.75 3.09375 -2.246094 4.167969 -1.339844 C 5.265625 -0.414062 6.859375 0.046875 8.949219 0.046875 C 10.636719 0.046875 11.789062 -0.214844 12.410156 -0.738281 C 13.003906 -1.238281 13.300781 -1.886719 13.300781 -2.679688 C 13.300781 -3.082031 13.234375 -3.414062 13.105469 -3.683594 C 12.960938 -3.984375 12.789062 -4.257812 12.585938 -4.503906 L 12.988281 -4.832031 L 13.152344 -4.339844 C 12.824219 -4.230469 12.445312 -4.140625 12.011719 -4.074219 C 11.582031 -4.007812 11.167969 -3.972656 10.761719 -3.972656 C 9.902344 -3.972656 9.21875 -4.140625 8.71875 -4.476562 C 8.148438 -4.855469 7.863281 -5.464844 7.863281 -6.304688 Z M 7.863281 -6.304688 "/></g></g></g><g fill="#1b2123" fill-opacity="1"><g transform="translate(59.883194, 40.694503)"><g><path d="M 8.53125 0.460938 C 8.253906 0.542969 7.832031 0.625 7.265625 0.703125 C 6.699219 0.78125 6.117188 0.820312 5.511719 0.820312 C 4.929688 0.820312 4.402344 0.78125 3.933594 0.699219 C 3.410156 0.609375 2.964844 0.429688 2.597656 0.152344 C 2.21875 -0.132812 1.929688 -0.511719 1.730469 -0.988281 C 1.539062 -1.441406 1.445312 -2.019531 1.445312 -2.71875 L 1.445312 -14.046875 C 1.445312 -14.710938 1.570312 -15.285156 1.824219 -15.777344 C 2.070312 -16.253906 2.421875 -16.683594 2.882812 -17.054688 C 3.320312 -17.410156 3.855469 -17.730469 4.488281 -18.011719 C 5.101562 -18.289062 5.757812 -18.527344 6.460938 -18.734375 C 7.164062 -18.945312 7.890625 -19.105469 8.644531 -19.222656 C 9.398438 -19.339844 10.15625 -19.398438 10.914062 -19.398438 C 12.226562 -19.398438 13.277344 -19.136719 14.070312 -18.613281 C 14.929688 -18.046875 15.359375 -17.140625 15.359375 -15.898438 C 15.359375 -15.496094 15.300781 -15.097656 15.1875 -14.710938 C 15.074219 -14.335938 14.933594 -13.992188 14.765625 -13.683594 L 14.621094 -13.414062 L 14.3125 -13.414062 C 13.796875 -13.414062 13.273438 -13.390625 12.734375 -13.339844 C 12.199219 -13.292969 11.671875 -13.21875 11.160156 -13.121094 C 10.640625 -13.023438 10.152344 -12.917969 9.695312 -12.804688 C 9.261719 -12.699219 8.898438 -12.578125 8.601562 -12.441406 L 8.382812 -12.914062 L 8.902344 -12.914062 L 8.902344 0.347656 Z M 8.234375 -0.535156 L 8.382812 -0.0390625 L 7.863281 -0.0390625 L 7.863281 -13.246094 L 8.164062 -13.386719 C 8.523438 -13.550781 8.949219 -13.695312 9.449219 -13.816406 C 9.921875 -13.929688 10.429688 -14.039062 10.964844 -14.140625 C 11.511719 -14.246094 12.070312 -14.324219 12.640625 -14.375 C 13.210938 -14.425781 13.765625 -14.453125 14.3125 -14.453125 L 14.3125 -13.933594 L 13.855469 -14.183594 C 13.988281 -14.425781 14.101562 -14.703125 14.191406 -15.007812 C 14.277344 -15.296875 14.320312 -15.59375 14.320312 -15.898438 C 14.320312 -16.769531 14.046875 -17.386719 13.496094 -17.75 C 12.878906 -18.15625 12.015625 -18.359375 10.914062 -18.359375 C 10.210938 -18.359375 9.503906 -18.304688 8.800781 -18.195312 C 8.09375 -18.085938 7.414062 -17.933594 6.753906 -17.738281 C 6.097656 -17.546875 5.484375 -17.320312 4.914062 -17.066406 C 4.363281 -16.820312 3.90625 -16.546875 3.535156 -16.25 C 3.191406 -15.96875 2.925781 -15.652344 2.746094 -15.300781 C 2.570312 -14.960938 2.484375 -14.542969 2.484375 -14.046875 L 2.484375 -2.71875 C 2.484375 -2.160156 2.550781 -1.714844 2.6875 -1.390625 C 2.816406 -1.085938 2.992188 -0.851562 3.21875 -0.679688 C 3.453125 -0.503906 3.75 -0.382812 4.109375 -0.324219 C 4.519531 -0.253906 4.988281 -0.21875 5.511719 -0.21875 C 6.066406 -0.21875 6.605469 -0.253906 7.121094 -0.324219 C 7.636719 -0.398438 8.007812 -0.46875 8.234375 -0.535156 Z M 8.234375 -0.535156 "/></g></g></g><g fill="#1b2123" fill-opacity="1"><g transform="translate(72.532683, 40.694503)"><g><path d="M 21.476562 -9.175781 C 21.476562 -7.550781 21.226562 -6.09375 20.722656 -4.8125 C 20.214844 -3.523438 19.5 -2.433594 18.578125 -1.550781 C 17.65625 -0.667969 16.554688 0 15.277344 0.453125 C 14.011719 0.898438 12.609375 1.125 11.0625 1.125 C 9.515625 1.125 8.109375 0.886719 6.839844 0.410156 C 5.566406 -0.0664062 4.46875 -0.753906 3.546875 -1.648438 C 2.625 -2.542969 1.910156 -3.628906 1.40625 -4.90625 C 0.902344 -6.175781 0.652344 -7.597656 0.652344 -9.175781 C 0.652344 -10.726562 0.902344 -12.136719 1.40625 -13.40625 C 1.910156 -14.683594 2.625 -15.769531 3.546875 -16.664062 C 4.46875 -17.558594 5.566406 -18.246094 6.839844 -18.722656 C 8.109375 -19.199219 9.515625 -19.4375 11.0625 -19.4375 C 12.613281 -19.4375 14.023438 -19.191406 15.289062 -18.703125 C 16.566406 -18.210938 17.660156 -17.519531 18.582031 -16.628906 C 19.503906 -15.734375 20.214844 -14.648438 20.722656 -13.371094 C 21.226562 -12.097656 21.476562 -10.703125 21.476562 -9.175781 Z M 20.4375 -9.175781 C 20.4375 -10.570312 20.210938 -11.839844 19.757812 -12.988281 C 19.304688 -14.125 18.671875 -15.089844 17.859375 -15.882812 C 17.039062 -16.675781 16.058594 -17.292969 14.917969 -17.734375 C 13.769531 -18.175781 12.484375 -18.398438 11.0625 -18.398438 C 9.640625 -18.398438 8.355469 -18.183594 7.207031 -17.75 C 6.066406 -17.324219 5.085938 -16.714844 4.269531 -15.921875 C 3.453125 -15.128906 2.820312 -14.164062 2.371094 -13.023438 C 1.917969 -11.878906 1.691406 -10.59375 1.691406 -9.175781 C 1.691406 -7.730469 1.917969 -6.4375 2.371094 -5.289062 C 2.820312 -4.148438 3.453125 -3.183594 4.269531 -2.394531 C 5.085938 -1.601562 6.066406 -0.988281 7.207031 -0.5625 C 8.355469 -0.128906 9.640625 0.0859375 11.0625 0.0859375 C 12.488281 0.0859375 13.777344 -0.117188 14.929688 -0.527344 C 16.070312 -0.929688 17.046875 -1.523438 17.859375 -2.300781 C 18.671875 -3.078125 19.304688 -4.042969 19.757812 -5.191406 C 20.210938 -6.351562 20.4375 -7.679688 20.4375 -9.175781 Z M 8.261719 -9.175781 C 8.261719 -7.753906 8.523438 -6.675781 9.050781 -5.949219 C 9.535156 -5.273438 10.222656 -4.9375 11.101562 -4.9375 C 11.976562 -4.9375 12.644531 -5.277344 13.109375 -5.957031 C 13.613281 -6.699219 13.867188 -7.773438 13.867188 -9.175781 C 13.867188 -10.574219 13.609375 -11.640625 13.09375 -12.367188 C 12.617188 -13.039062 11.941406 -13.375 11.0625 -13.375 C 10.183594 -13.375 9.507812 -13.039062 9.03125 -12.367188 C 8.519531 -11.640625 8.261719 -10.574219 8.261719 -9.175781 Z M 7.222656 -9.175781 C 7.222656 -10.796875 7.542969 -12.058594 8.183594 -12.96875 C 8.867188 -13.933594 9.828125 -14.414062 11.0625 -14.414062 C 12.300781 -14.414062 13.257812 -13.933594 13.941406 -12.96875 C 14.585938 -12.058594 14.90625 -10.796875 14.90625 -9.175781 C 14.90625 -7.558594 14.59375 -6.289062 13.964844 -5.371094 C 13.296875 -4.390625 12.339844 -3.898438 11.101562 -3.898438 C 9.867188 -3.898438 8.902344 -4.378906 8.207031 -5.339844 C 7.550781 -6.25 7.222656 -7.527344 7.222656 -9.175781 Z M 7.222656 -9.175781 "/></g></g></g><g fill="#1b2123" fill-opacity="1"><g transform="translate(91.790597, 40.694503)"><g/></g></g><g fill="#1b2123" fill-opacity="1"><g transform="translate(96.472755, 40.694503)"><g/></g></g><g fill="#ffcc00" fill-opacity="1"><g transform="translate(0.713697, 40.694503)"><g><path d="M 10.765625 -18.921875 C 11.796875 -18.921875 12.804688 -18.773438 13.796875 -18.484375 C 14.796875 -18.191406 15.660156 -17.757812 16.390625 -17.1875 C 17.140625 -17.6875 17.988281 -18.097656 18.9375 -18.421875 C 19.882812 -18.753906 21.023438 -18.921875 22.359375 -18.921875 C 23.316406 -18.921875 24.253906 -18.796875 25.171875 -18.546875 C 26.085938 -18.296875 26.90625 -17.898438 27.625 -17.359375 C 28.34375 -16.816406 28.914062 -16.097656 29.34375 -15.203125 C 29.769531 -14.304688 29.984375 -13.21875 29.984375 -11.9375 L 29.984375 -0.03125 C 29.734375 0.0390625 29.335938 0.113281 28.796875 0.1875 C 28.253906 0.257812 27.691406 0.296875 27.109375 0.296875 C 26.554688 0.296875 26.0625 0.257812 25.625 0.1875 C 25.1875 0.113281 24.816406 -0.0351562 24.515625 -0.265625 C 24.210938 -0.492188 23.976562 -0.800781 23.8125 -1.1875 C 23.644531 -1.582031 23.5625 -2.09375 23.5625 -2.71875 L 23.5625 -11.75 C 23.5625 -12.5 23.347656 -13.039062 22.921875 -13.375 C 22.492188 -13.71875 21.914062 -13.890625 21.1875 -13.890625 C 20.832031 -13.890625 20.453125 -13.804688 20.046875 -13.640625 C 19.648438 -13.484375 19.347656 -13.316406 19.140625 -13.140625 C 19.171875 -13.035156 19.1875 -12.941406 19.1875 -12.859375 C 19.1875 -12.773438 19.1875 -12.691406 19.1875 -12.609375 L 19.1875 -0.03125 C 18.90625 0.0390625 18.492188 0.113281 17.953125 0.1875 C 17.410156 0.257812 16.863281 0.296875 16.3125 0.296875 C 15.757812 0.296875 15.257812 0.257812 14.8125 0.1875 C 14.375 0.113281 14.003906 -0.0351562 13.703125 -0.265625 C 13.398438 -0.492188 13.164062 -0.800781 13 -1.1875 C 12.84375 -1.582031 12.765625 -2.09375 12.765625 -2.71875 L 12.765625 -11.75 C 12.765625 -12.5 12.53125 -13.039062 12.0625 -13.375 C 11.601562 -13.71875 11.046875 -13.890625 10.390625 -13.890625 C 9.929688 -13.890625 9.535156 -13.820312 9.203125 -13.6875 C 8.878906 -13.550781 8.609375 -13.421875 8.390625 -13.296875 L 8.390625 -0.03125 C 8.128906 0.0390625 7.726562 0.113281 7.1875 0.1875 C 6.644531 0.257812 6.085938 0.296875 5.515625 0.296875 C 4.960938 0.296875 4.460938 0.257812 4.015625 0.1875 C 3.578125 0.113281 3.207031 -0.0351562 2.90625 -0.265625 C 2.601562 -0.492188 2.367188 -0.800781 2.203125 -1.1875 C 2.046875 -1.582031 1.96875 -2.09375 1.96875 -2.71875 L 1.96875 -14.125 C 1.96875 -14.800781 2.109375 -15.34375 2.390625 -15.75 C 2.679688 -16.15625 3.082031 -16.53125 3.59375 -16.875 C 4.445312 -17.476562 5.507812 -17.96875 6.78125 -18.34375 C 8.050781 -18.726562 9.378906 -18.921875 10.765625 -18.921875 Z M 10.765625 -18.921875 "/></g></g></g><g fill="#ffcc00" fill-opacity="1"><g transform="translate(29.788714, 40.694503)"><g><path d="M 11.671875 0.609375 C 10.179688 0.609375 8.800781 0.398438 7.53125 -0.015625 C 6.257812 -0.429688 5.148438 -1.054688 4.203125 -1.890625 C 3.265625 -2.722656 2.523438 -3.765625 1.984375 -5.015625 C 1.441406 -6.273438 1.171875 -7.75 1.171875 -9.4375 C 1.171875 -11.101562 1.441406 -12.53125 1.984375 -13.71875 C 2.523438 -14.914062 3.234375 -15.898438 4.109375 -16.671875 C 4.992188 -17.441406 6.003906 -18.007812 7.140625 -18.375 C 8.273438 -18.738281 9.429688 -18.921875 10.609375 -18.921875 C 11.941406 -18.921875 13.15625 -18.71875 14.25 -18.3125 C 15.351562 -17.914062 16.300781 -17.363281 17.09375 -16.65625 C 17.882812 -15.945312 18.5 -15.101562 18.9375 -14.125 C 19.375 -13.144531 19.59375 -12.078125 19.59375 -10.921875 C 19.59375 -10.054688 19.351562 -9.394531 18.875 -8.9375 C 18.40625 -8.488281 17.738281 -8.203125 16.875 -8.078125 L 7.546875 -6.6875 C 7.828125 -5.851562 8.394531 -5.226562 9.25 -4.8125 C 10.101562 -4.394531 11.085938 -4.1875 12.203125 -4.1875 C 13.234375 -4.1875 14.207031 -4.316406 15.125 -4.578125 C 16.039062 -4.847656 16.789062 -5.160156 17.375 -5.515625 C 17.769531 -5.265625 18.109375 -4.910156 18.390625 -4.453125 C 18.671875 -4.003906 18.8125 -3.523438 18.8125 -3.015625 C 18.8125 -1.890625 18.28125 -1.046875 17.21875 -0.484375 C 16.414062 -0.0546875 15.507812 0.226562 14.5 0.375 C 13.488281 0.53125 12.546875 0.609375 11.671875 0.609375 Z M 10.609375 -14.234375 C 10.003906 -14.234375 9.484375 -14.132812 9.046875 -13.9375 C 8.609375 -13.738281 8.25 -13.476562 7.96875 -13.15625 C 7.6875 -12.84375 7.476562 -12.488281 7.34375 -12.09375 C 7.207031 -11.707031 7.125 -11.316406 7.09375 -10.921875 L 13.5625 -11.96875 C 13.476562 -12.476562 13.195312 -12.984375 12.71875 -13.484375 C 12.25 -13.984375 11.546875 -14.234375 10.609375 -14.234375 Z M 10.609375 -14.234375 "/></g></g></g><g fill="#ffcc00" fill-opacity="1"><g transform="translate(47.649063, 40.694503)"><g><path d="M 8.390625 -6.3125 C 8.390625 -5.65625 8.59375 -5.1875 9 -4.90625 C 9.414062 -4.632812 10.003906 -4.5 10.765625 -4.5 C 11.140625 -4.5 11.523438 -4.53125 11.921875 -4.59375 C 12.328125 -4.65625 12.679688 -4.734375 12.984375 -4.828125 C 13.210938 -4.554688 13.410156 -4.25 13.578125 -3.90625 C 13.742188 -3.570312 13.828125 -3.164062 13.828125 -2.6875 C 13.828125 -1.726562 13.46875 -0.945312 12.75 -0.34375 C 12.03125 0.257812 10.765625 0.5625 8.953125 0.5625 C 6.734375 0.5625 5.023438 0.0625 3.828125 -0.9375 C 2.640625 -1.945312 2.046875 -3.585938 2.046875 -5.859375 L 2.046875 -22.015625 C 2.316406 -22.085938 2.707031 -22.164062 3.21875 -22.25 C 3.738281 -22.34375 4.289062 -22.390625 4.875 -22.390625 C 5.976562 -22.390625 6.835938 -22.191406 7.453125 -21.796875 C 8.078125 -21.410156 8.390625 -20.59375 8.390625 -19.34375 L 8.390625 -16.921875 L 13.328125 -16.921875 C 13.484375 -16.640625 13.628906 -16.289062 13.765625 -15.875 C 13.898438 -15.457031 13.96875 -15 13.96875 -14.5 C 13.96875 -13.625 13.769531 -12.988281 13.375 -12.59375 C 12.988281 -12.207031 12.472656 -12.015625 11.828125 -12.015625 L 8.390625 -12.015625 Z M 8.390625 -6.3125 "/></g></g></g><g fill="#ffcc00" fill-opacity="1"><g transform="translate(59.883194, 40.694503)"><g><path d="M 8.390625 -0.03125 C 8.128906 0.0390625 7.726562 0.113281 7.1875 0.1875 C 6.644531 0.257812 6.085938 0.296875 5.515625 0.296875 C 4.960938 0.296875 4.460938 0.257812 4.015625 0.1875 C 3.578125 0.113281 3.207031 -0.0351562 2.90625 -0.265625 C 2.601562 -0.492188 2.367188 -0.800781 2.203125 -1.1875 C 2.046875 -1.582031 1.96875 -2.09375 1.96875 -2.71875 L 1.96875 -14.046875 C 1.96875 -14.628906 2.070312 -15.125 2.28125 -15.53125 C 2.5 -15.945312 2.804688 -16.320312 3.203125 -16.65625 C 3.609375 -16.976562 4.109375 -17.269531 4.703125 -17.53125 C 5.296875 -17.800781 5.929688 -18.035156 6.609375 -18.234375 C 7.285156 -18.441406 7.988281 -18.601562 8.71875 -18.71875 C 9.445312 -18.832031 10.179688 -18.890625 10.921875 -18.890625 C 12.128906 -18.890625 13.082031 -18.65625 13.78125 -18.1875 C 14.488281 -17.71875 14.84375 -16.957031 14.84375 -15.90625 C 14.84375 -15.550781 14.789062 -15.203125 14.6875 -14.859375 C 14.59375 -14.515625 14.46875 -14.207031 14.3125 -13.9375 C 13.78125 -13.9375 13.238281 -13.910156 12.6875 -13.859375 C 12.132812 -13.804688 11.59375 -13.726562 11.0625 -13.625 C 10.53125 -13.53125 10.03125 -13.425781 9.5625 -13.3125 C 9.101562 -13.195312 8.710938 -13.066406 8.390625 -12.921875 Z M 8.390625 -0.03125 "/></g></g></g><g fill="#ffcc00" fill-opacity="1"><g transform="translate(72.532683, 40.694503)"><g><path d="M 20.953125 -9.171875 C 20.953125 -7.609375 20.710938 -6.21875 20.234375 -5 C 19.765625 -3.78125 19.09375 -2.753906 18.21875 -1.921875 C 17.351562 -1.097656 16.316406 -0.46875 15.109375 -0.03125 C 13.898438 0.394531 12.550781 0.609375 11.0625 0.609375 C 9.582031 0.609375 8.238281 0.382812 7.03125 -0.0625 C 5.820312 -0.519531 4.78125 -1.171875 3.90625 -2.015625 C 3.039062 -2.859375 2.367188 -3.882812 1.890625 -5.09375 C 1.410156 -6.300781 1.171875 -7.660156 1.171875 -9.171875 C 1.171875 -10.660156 1.410156 -12.007812 1.890625 -13.21875 C 2.367188 -14.425781 3.039062 -15.453125 3.90625 -16.296875 C 4.78125 -17.140625 5.820312 -17.785156 7.03125 -18.234375 C 8.238281 -18.691406 9.582031 -18.921875 11.0625 -18.921875 C 12.550781 -18.921875 13.898438 -18.6875 15.109375 -18.21875 C 16.316406 -17.75 17.351562 -17.09375 18.21875 -16.25 C 19.09375 -15.414062 19.765625 -14.394531 20.234375 -13.1875 C 20.710938 -11.976562 20.953125 -10.640625 20.953125 -9.171875 Z M 7.734375 -9.171875 C 7.734375 -7.640625 8.03125 -6.460938 8.625 -5.640625 C 9.21875 -4.828125 10.046875 -4.421875 11.109375 -4.421875 C 12.160156 -4.421875 12.96875 -4.832031 13.53125 -5.65625 C 14.101562 -6.488281 14.390625 -7.660156 14.390625 -9.171875 C 14.390625 -10.679688 14.097656 -11.84375 13.515625 -12.65625 C 12.941406 -13.476562 12.125 -13.890625 11.0625 -13.890625 C 10.007812 -13.890625 9.191406 -13.476562 8.609375 -12.65625 C 8.023438 -11.84375 7.734375 -10.679688 7.734375 -9.171875 Z M 7.734375 -9.171875 "/></g></g></g><g fill="#ffcc00" fill-opacity="1"><g transform="translate(91.790597, 40.694503)"><g/></g></g><g fill="#ffcc00" fill-opacity="1"><g transform="translate(96.472755, 40.694503)"><g/></g></g></g></g><g clip-path="url(#108e570378)"><g clip-path="url(#20e2be77ba)"><g clip-path="url(#abd870b644)"><path fill="#1b2123" d="M 95.519531 37.289062 C 91.800781 36.507812 87.511719 36.394531 83.441406 36.960938 C 81.414062 37.246094 79.492188 37.6875 77.730469 38.28125 L 76.832031 38.582031 L 77.871094 32.820312 C 76.601562 32.808594 73.988281 32.519531 72.382812 30.484375 C 71.605469 29.5 71.285156 28.546875 71.414062 27.574219 C 71.578125 26.304688 72.804688 23.121094 76.886719 22.730469 C 79.96875 22.300781 83.257812 23.957031 83.929688 24.316406 C 84.222656 24.328125 84.507812 24.316406 84.789062 24.277344 C 85.929688 24.117188 86.9375 23.542969 88.101562 22.878906 C 89.765625 21.929688 91.832031 20.75 95.152344 20.285156 C 95.5625 20.230469 95.988281 20.183594 96.414062 20.152344 C 100.164062 19.863281 102.582031 20.480469 103.800781 22.046875 C 104.34375 22.742188 105.308594 25.183594 104.371094 27.933594 C 103.90625 29.40625 102.628906 30.4375 101.046875 31.265625 C 100.300781 31.65625 99.019531 32.175781 97.152344 32.4375 C 96.644531 32.507812 96.203125 32.542969 95.875 32.5625 L 96.246094 37.441406 Z M 95.519531 37.289062 " fill-opacity="1" fill-rule="nonzero"/></g></g></g><g clip-path="url(#94e31837fb)"><g clip-path="url(#18566b5b61)"><g clip-path="url(#5cba677a93)"><path fill="#ffcc00" d="M 103.601562 27.621094 C 103.09375 29.222656 101.882812 30.242188 100.535156 30.886719 C 98.121094 32.046875 95.269531 32.011719 95.269531 32.011719 L 95.628906 36.730469 C 94.191406 36.429688 92.671875 36.226562 91.117188 36.121094 C 86.578125 35.816406 81.710938 36.347656 77.554688 37.742188 L 78.550781 32.226562 C 78.550781 32.226562 74.789062 32.628906 72.820312 30.132812 C 71.566406 28.542969 71.773438 26.234375 74.332031 24.222656 C 77.84375 21.628906 83.777344 24.878906 83.777344 24.878906 C 87.667969 25.125 89.214844 21.277344 96.460938 20.71875 C 103.683594 20.160156 105.015625 23.152344 103.601562 27.621094 Z M 103.601562 27.621094 " fill-opacity="1" fill-rule="nonzero"/></g></g></g><g clip-path="url(#a9824e6e96)"><g clip-path="url(#50284f115c)"><g clip-path="url(#e79188e5a4)"><path fill="#ffcc00" d="M 78.210938 32.101562 C 78.210938 32.101562 75.667969 31.757812 74.628906 30.878906 C 73.566406 29.976562 73.472656 29.148438 73.707031 29.277344 C 73.941406 29.410156 74.796875 30.496094 75.636719 30.324219 C 76.476562 30.152344 75.441406 28.925781 76.175781 29.152344 C 76.910156 29.378906 77.667969 30.152344 78.03125 30.8125 C 78.394531 31.476562 78.210938 32.101562 78.210938 32.101562 Z M 78.210938 32.101562 " fill-opacity="1" fill-rule="nonzero"/></g></g></g><g clip-path="url(#13a538c3e2)"><g clip-path="url(#d3680a2730)"><g clip-path="url(#dca634aa6e)"><path fill="#ffcc00" d="M 85.933594 25.109375 C 85.933594 25.109375 87.730469 25.097656 89.671875 24.023438 C 91.613281 22.949219 93.074219 22.457031 93.160156 23.078125 C 93.246094 23.695312 92.59375 24.703125 90.304688 25.3125 C 88.011719 25.917969 85.933594 25.109375 85.933594 25.109375 Z M 85.933594 25.109375 " fill-opacity="1" fill-rule="nonzero"/></g></g></g><g clip-path="url(#86535a696e)"><g clip-path="url(#1ef794bef3)"><g clip-path="url(#03e202239b)"><path fill="#ffcc00" d="M 101.894531 29.414062 C 101.863281 29.445312 101.070312 30.328125 100.535156 30.886719 C 98.121094 32.046875 95.269531 32.011719 95.269531 32.011719 L 95.628906 36.730469 C 94.191406 36.429688 92.671875 36.226562 91.117188 36.121094 C 91.550781 35.871094 91.917969 35.433594 92.042969 34.679688 C 92.410156 32.4375 92.070312 31.09375 92.070312 31.09375 C 92.070312 31.09375 89.550781 32.683594 87.5625 32.648438 C 85.59375 32.617188 82.847656 30.261719 82.804688 30.226562 C 82.839844 30.226562 84.746094 30.414062 85.847656 30.183594 C 86.957031 29.953125 86.957031 29.953125 86.957031 29.953125 C 86.175781 28.816406 85.476562 27.726562 86.46875 27.546875 C 86.46875 27.546875 89.519531 30.289062 94.484375 28.746094 C 99.449219 27.203125 99.464844 25.117188 100.542969 26.277344 C 101.617188 27.441406 98.785156 30.078125 99.789062 30.167969 C 100.773438 30.257812 101.855469 29.441406 101.894531 29.414062 Z M 101.894531 29.414062 " fill-opacity="1" fill-rule="nonzero"/></g></g></g><g clip-path="url(#ade789c611)"><g clip-path="url(#02bec6d1fa)"><g clip-path="url(#2218f5f9ca)"><path fill="#1b2123" d="M 82.027344 24.027344 C 82.027344 24.027344 83.941406 25.230469 85.78125 25.679688 C 87.621094 26.128906 89.136719 25.367188 89.136719 25.367188 C 89.136719 25.367188 87.210938 25.402344 85.933594 25.109375 C 84.65625 24.820312 84.40625 24.695312 84.40625 24.695312 Z M 82.027344 24.027344 " fill-opacity="1" fill-rule="nonzero"/></g></g></g><g clip-path="url(#da4ee0f07a)"><g clip-path="url(#62d00b70a1)"><g clip-path="url(#8c25d35f69)"><path fill="#1b2123" d="M 95.410156 30.167969 C 95.242188 30.492188 95.285156 31.984375 95.359375 33.109375 L 95.875 32.5625 C 95.792969 31.757812 95.753906 31.050781 95.75 30.429688 Z M 95.410156 30.167969 " fill-opacity="1" fill-rule="nonzero"/></g></g></g><g clip-path="url(#57a8c3cc54)"><g clip-path="url(#ffe737f580)"><g clip-path="url(#e50c36846c)"><path fill="#1b2123" d="M 99.65625 27.902344 C 99.65625 27.902344 98.40625 29.890625 94.265625 30.210938 C 90.125 30.53125 87.613281 29.328125 87.613281 29.328125 C 87.613281 29.328125 89.925781 31.019531 93.742188 30.980469 C 96.144531 30.902344 95.507812 30.921875 97.019531 30.386719 C 98.53125 29.855469 99.65625 27.902344 99.65625 27.902344 Z M 99.65625 27.902344 " fill-opacity="1" fill-rule="nonzero"/></g></g></g><g clip-path="url(#0ced8e8bd2)"><g clip-path="url(#83cd66eb3f)"><g clip-path="url(#0bf9527d4d)"><path fill="#1b2123" d="M 89.242188 30.015625 C 87.632812 31.195312 84.671875 31.496094 82.371094 30.523438 C 82.371094 30.523438 82.988281 31.332031 85.359375 31.640625 C 87.734375 31.945312 90.339844 30.304688 90.339844 30.304688 Z M 89.242188 30.015625 " fill-opacity="1" fill-rule="nonzero"/></g></g></g><g clip-path="url(#d0a93f0e62)"><g clip-path="url(#0b14f4fa6e)"><g clip-path="url(#f86dfa7d2d)"><path fill="#1b2123" d="M 78.359375 32.929688 C 78.429688 32.777344 78.636719 32.277344 78.566406 31.769531 C 78.496094 31.261719 76.976562 30.015625 76.976562 30.015625 C 76.976562 30.015625 77.78125 31.128906 77.941406 31.621094 C 78.105469 32.117188 77.871094 32.820312 77.871094 32.820312 Z M 78.359375 32.929688 " fill-opacity="1" fill-rule="nonzero"/></g></g></g></svg>